<svg width="40" height="40" viewBox="0 0 40 40" fill="none" xmlns="http://www.w3.org/2000/svg">
<g clip-path="url(#clip0_100_1369)">
<g clip-path="url(#clip1_100_1369)">
<g filter="url(#filter0_d_100_1369)">
<rect x="-0.00012207" y="-6.10352e-05" width="40.0001" height="40.0001" rx="9.13" fill="url(#paint0_linear_100_1369)" shape-rendering="crispEdges"/>
<g clip-path="url(#clip2_100_1369)">
<g clip-path="url(#clip3_100_1369)">
<g filter="url(#filter1_f_100_1369)">
<ellipse cx="2.70552" cy="1.6211" rx="9.38231" ry="7.66864" transform="rotate(-67.1971 2.70552 1.6211)" fill="#8156FF"/>
</g>
<g filter="url(#filter2_f_100_1369)">
<ellipse cx="39.5468" cy="38.3388" rx="11.563" ry="7.9507" transform="rotate(-19.3916 39.5468 38.3388)" fill="#2D68FF"/>
</g>
<path d="M26.8473 30.5755H31.067L22.2383 9.34988H17.5951C16.228 9.34988 15.3005 10.7402 15.8255 12.0025L22.2849 27.5319C23.0515 29.3747 24.8514 30.5755 26.8473 30.5755Z" fill="url(#paint1_linear_100_1369)" stroke="url(#paint2_linear_100_1369)" stroke-width="0.2"/>
<g filter="url(#filter3_b_100_1369)">
<path fill-rule="evenodd" clip-rule="evenodd" d="M5.74988 30.6755L13.5082 11.753C14.129 10.2388 15.6033 9.24988 17.2398 9.24988L22.1424 9.24988L14.6407 27.5466C13.8647 29.4394 12.0218 30.6755 9.9762 30.6755H5.74988Z" fill="url(#paint3_linear_100_1369)"/>
<path fill-rule="evenodd" clip-rule="evenodd" d="M5.74988 30.6755L13.5082 11.753C14.129 10.2388 15.6033 9.24988 17.2398 9.24988L22.1424 9.24988L14.6407 27.5466C13.8647 29.4394 12.0218 30.6755 9.9762 30.6755H5.74988Z" fill="url(#paint4_radial_100_1369)" fill-opacity="0.4"/>
<path fill-rule="evenodd" clip-rule="evenodd" d="M5.74988 30.6755L13.5082 11.753C14.129 10.2388 15.6033 9.24988 17.2398 9.24988L22.1424 9.24988L14.6407 27.5466C13.8647 29.4394 12.0218 30.6755 9.9762 30.6755H5.74988Z" fill="url(#paint5_radial_100_1369)" fill-opacity="0.4"/>
<path fill-rule="evenodd" clip-rule="evenodd" d="M5.74988 30.6755L13.5082 11.753C14.129 10.2388 15.6033 9.24988 17.2398 9.24988L22.1424 9.24988L14.6407 27.5466C13.8647 29.4394 12.0218 30.6755 9.9762 30.6755H5.74988Z" fill="url(#paint6_radial_100_1369)" fill-opacity="0.4"/>
<path d="M9.9762 30.5755H5.89896L13.6007 11.7909C14.2062 10.3143 15.6439 9.34988 17.2398 9.34988H21.9934L14.5482 27.5087C13.7875 29.3639 11.9812 30.5755 9.9762 30.5755Z" stroke="url(#paint7_linear_100_1369)" stroke-width="0.2"/>
<path d="M9.9762 30.5755H5.89896L13.6007 11.7909C14.2062 10.3143 15.6439 9.34988 17.2398 9.34988H21.9934L14.5482 27.5087C13.7875 29.3639 11.9812 30.5755 9.9762 30.5755Z" stroke="url(#paint8_linear_100_1369)" stroke-width="0.2"/>
</g>
<g filter="url(#filter4_b_100_1369)">
<path fill-rule="evenodd" clip-rule="evenodd" d="M17.8573 30.6755L24.9045 12.1022C25.4989 10.5357 26.9998 9.49988 28.6753 9.49988H33.4999L26.6995 27.4226C25.9565 29.3807 24.0804 30.6755 21.9861 30.6755H17.8573Z" fill="white"/>
<path fill-rule="evenodd" clip-rule="evenodd" d="M17.8573 30.6755L24.9045 12.1022C25.4989 10.5357 26.9998 9.49988 28.6753 9.49988H33.4999L26.6995 27.4226C25.9565 29.3807 24.0804 30.6755 21.9861 30.6755H17.8573Z" fill="url(#paint9_linear_100_1369)"/>
<path fill-rule="evenodd" clip-rule="evenodd" d="M17.8573 30.6755L24.9045 12.1022C25.4989 10.5357 26.9998 9.49988 28.6753 9.49988H33.4999L26.6995 27.4226C25.9565 29.3807 24.0804 30.6755 21.9861 30.6755H17.8573Z" fill="url(#paint10_radial_100_1369)" fill-opacity="0.6"/>
<path fill-rule="evenodd" clip-rule="evenodd" d="M17.8573 30.6755L24.9045 12.1022C25.4989 10.5357 26.9998 9.49988 28.6753 9.49988H33.4999L26.6995 27.4226C25.9565 29.3807 24.0804 30.6755 21.9861 30.6755H17.8573Z" fill="url(#paint11_radial_100_1369)" fill-opacity="0.4"/>
<path d="M21.9861 30.5489H18.0408L25.0229 12.1471C25.5986 10.6299 27.0524 9.62652 28.6753 9.62652H33.3164L26.5811 27.3777C25.8568 29.2866 24.0278 30.5489 21.9861 30.5489Z" stroke="url(#paint12_linear_100_1369)" stroke-width="0.253281"/>
<path d="M21.9861 30.5489H18.0408L25.0229 12.1471C25.5986 10.6299 27.0524 9.62652 28.6753 9.62652H33.3164L26.5811 27.3777C25.8568 29.2866 24.0278 30.5489 21.9861 30.5489Z" stroke="url(#paint13_linear_100_1369)" stroke-width="0.253281"/>
</g>
</g>
</g>
</g>
</g>
</g>
<defs>
<filter id="filter0_d_100_1369" x="-16.0001" y="-12.0001" width="72.0001" height="72.0001" filterUnits="userSpaceOnUse" color-interpolation-filters="sRGB">
<feFlood flood-opacity="0" result="BackgroundImageFix"/>
<feColorMatrix in="SourceAlpha" type="matrix" values="0 0 0 0 0 0 0 0 0 0 0 0 0 0 0 0 0 0 127 0" result="hardAlpha"/>
<feOffset dy="4"/>
<feGaussianBlur stdDeviation="8"/>
<feComposite in2="hardAlpha" operator="out"/>
<feColorMatrix type="matrix" values="0 0 0 0 0.458824 0 0 0 0 0.423529 0 0 0 0 0.960784 0 0 0 0.5 0"/>
<feBlend mode="normal" in2="BackgroundImageFix" result="effect1_dropShadow_100_1369"/>
<feBlend mode="normal" in="SourceGraphic" in2="effect1_dropShadow_100_1369" result="shape"/>
</filter>
<filter id="filter1_f_100_1369" x="-21.2458" y="-23.5268" width="47.9027" height="50.2958" filterUnits="userSpaceOnUse" color-interpolation-filters="sRGB">
<feFlood flood-opacity="0" result="BackgroundImageFix"/>
<feBlend mode="normal" in="SourceGraphic" in2="BackgroundImageFix" result="shape"/>
<feGaussianBlur stdDeviation="8" result="effect1_foregroundBlur_100_1369"/>
</filter>
<filter id="filter2_f_100_1369" x="12.3223" y="13.9118" width="54.4491" height="48.854" filterUnits="userSpaceOnUse" color-interpolation-filters="sRGB">
<feFlood flood-opacity="0" result="BackgroundImageFix"/>
<feBlend mode="normal" in="SourceGraphic" in2="BackgroundImageFix" result="shape"/>
<feGaussianBlur stdDeviation="8" result="effect1_foregroundBlur_100_1369"/>
</filter>
<filter id="filter3_b_100_1369" x="2.97715" y="6.47715" width="21.938" height="26.9711" filterUnits="userSpaceOnUse" color-interpolation-filters="sRGB">
<feFlood flood-opacity="0" result="BackgroundImageFix"/>
<feGaussianBlur in="BackgroundImageFix" stdDeviation="1.38636"/>
<feComposite in2="SourceAlpha" operator="in" result="effect1_backgroundBlur_100_1369"/>
<feBlend mode="normal" in="SourceGraphic" in2="effect1_backgroundBlur_100_1369" result="shape"/>
</filter>
<filter id="filter4_b_100_1369" x="13.5722" y="5.21475" width="24.2128" height="29.7459" filterUnits="userSpaceOnUse" color-interpolation-filters="sRGB">
<feFlood flood-opacity="0" result="BackgroundImageFix"/>
<feGaussianBlur in="BackgroundImageFix" stdDeviation="2.14256"/>
<feComposite in2="SourceAlpha" operator="in" result="effect1_backgroundBlur_100_1369"/>
<feBlend mode="normal" in="SourceGraphic" in2="effect1_backgroundBlur_100_1369" result="shape"/>
</filter>
<linearGradient id="paint0_linear_100_1369" x1="11.9999" y1="-2.50006" x2="11.9999" y2="39.9999" gradientUnits="userSpaceOnUse">
<stop stop-color="#333567"/>
<stop offset="1" stop-color="#33275A"/>
</linearGradient>
<linearGradient id="paint1_linear_100_1369" x1="16.5001" y1="6.49988" x2="27.6415" y2="30.8941" gradientUnits="userSpaceOnUse">
<stop stop-color="#5E01D5"/>
<stop offset="0.35" stop-color="#5E39F3"/>
<stop offset="1" stop-color="#7CA1FF"/>
</linearGradient>
<linearGradient id="paint2_linear_100_1369" x1="31.0001" y1="30.9999" x2="26.0001" y2="21.4999" gradientUnits="userSpaceOnUse">
<stop stop-color="white" stop-opacity="0.6"/>
<stop offset="0.51" stop-color="white" stop-opacity="0"/>
</linearGradient>
<linearGradient id="paint3_linear_100_1369" x1="9.49988" y1="33.4999" x2="12.3273" y2="5.57736" gradientUnits="userSpaceOnUse">
<stop stop-color="#8F00FF"/>
<stop offset="1" stop-color="#66C8FF"/>
</linearGradient>
<radialGradient id="paint4_radial_100_1369" cx="0" cy="0" r="1" gradientUnits="userSpaceOnUse" gradientTransform="translate(15.9999 10.4999) rotate(101.31) scale(10.198 16.0748)">
<stop stop-color="white"/>
<stop offset="1" stop-color="#F66CBF" stop-opacity="0"/>
</radialGradient>
<radialGradient id="paint5_radial_100_1369" cx="0" cy="0" r="1" gradientUnits="userSpaceOnUse" gradientTransform="translate(15.9999 10.4999) rotate(101.31) scale(10.198 16.0748)">
<stop stop-color="white"/>
<stop offset="1" stop-color="#F66CBF" stop-opacity="0"/>
</radialGradient>
<radialGradient id="paint6_radial_100_1369" cx="0" cy="0" r="1" gradientUnits="userSpaceOnUse" gradientTransform="translate(12.4999 29.4999) rotate(-106.39) scale(8.86002 10.5487)">
<stop stop-color="white"/>
<stop offset="1" stop-color="#756CF6" stop-opacity="0"/>
</radialGradient>
<linearGradient id="paint7_linear_100_1369" x1="13.9462" y1="9.24988" x2="17.4999" y2="12.9999" gradientUnits="userSpaceOnUse">
<stop stop-color="white"/>
<stop offset="1" stop-color="white" stop-opacity="0"/>
</linearGradient>
<linearGradient id="paint8_linear_100_1369" x1="15.9999" y1="27.4999" x2="13.9999" y2="24.4999" gradientUnits="userSpaceOnUse">
<stop stop-color="white" stop-opacity="0.7"/>
<stop offset="1" stop-color="white" stop-opacity="0"/>
</linearGradient>
<linearGradient id="paint9_linear_100_1369" x1="32.0566" y1="9.75401" x2="19.6934" y2="32.3648" gradientUnits="userSpaceOnUse">
<stop stop-color="#FF24C2"/>
<stop offset="1" stop-color="#FFE092" stop-opacity="0.7"/>
</linearGradient>
<radialGradient id="paint10_radial_100_1369" cx="0" cy="0" r="1" gradientUnits="userSpaceOnUse" gradientTransform="translate(26.4999 10.4999) rotate(54.7824) scale(10.4043 8.56431)">
<stop stop-color="white"/>
<stop offset="1" stop-color="#FC4ECD" stop-opacity="0"/>
</radialGradient>
<radialGradient id="paint11_radial_100_1369" cx="0" cy="0" r="1" gradientUnits="userSpaceOnUse" gradientTransform="translate(27.6383 10.7353) rotate(100.929) scale(10.0659 15.3594)">
<stop stop-color="white"/>
<stop offset="1" stop-color="#F66CBF" stop-opacity="0"/>
</radialGradient>
<linearGradient id="paint12_linear_100_1369" x1="25.4999" y1="10.4999" x2="27.4999" y2="13.9999" gradientUnits="userSpaceOnUse">
<stop stop-color="white"/>
<stop offset="1" stop-color="white" stop-opacity="0"/>
</linearGradient>
<linearGradient id="paint13_linear_100_1369" x1="27.6383" y1="27.5369" x2="25.6359" y2="24.6368" gradientUnits="userSpaceOnUse">
<stop stop-color="white" stop-opacity="0.7"/>
<stop offset="1" stop-color="white" stop-opacity="0"/>
</linearGradient>
<clipPath id="clip0_100_1369">
<rect width="40" height="40" fill="white"/>
</clipPath>
<clipPath id="clip1_100_1369">
<rect width="40" height="40" rx="9.12621" fill="white"/>
</clipPath>
<clipPath id="clip2_100_1369">
<rect width="40" height="40" fill="white"/>
</clipPath>
<clipPath id="clip3_100_1369">
<rect x="-0.00012207" y="-6.10352e-05" width="40" height="40" rx="9.12621" fill="white"/>
</clipPath>
</defs>
</svg>
